<?xml version="1.0" encoding="UTF-8" standalone="no"?>
<!-- Created with Inkscape (http://www.inkscape.org/) -->

<svg
   xmlns:dc="http://purl.org/dc/elements/1.1/"
   xmlns:cc="http://creativecommons.org/ns#"
   xmlns:rdf="http://www.w3.org/1999/02/22-rdf-syntax-ns#"
   xmlns:svg="http://www.w3.org/2000/svg"
   xmlns="http://www.w3.org/2000/svg"
   xmlns:sodipodi="http://sodipodi.sourceforge.net/DTD/sodipodi-0.dtd"
   xmlns:inkscape="http://www.inkscape.org/namespaces/inkscape"
   width="210mm"
   height="297mm"
   viewBox="0 0 210 297"
   version="1.1"
   id="svg7776"
   inkscape:version="0.92.0 r15299"
   sodipodi:docname="canvas.svg">
  <defs
     id="defs7770" />
  <sodipodi:namedview
     id="base"
     pagecolor="#ffffff"
     bordercolor="#666666"
     borderopacity="1.0"
     inkscape:pageopacity="0.0"
     inkscape:pageshadow="2"
     inkscape:zoom="0.35"
     inkscape:cx="-64.285714"
     inkscape:cy="560"
     inkscape:document-units="mm"
     inkscape:current-layer="layer1"
     showgrid="false"
     inkscape:window-width="1920"
     inkscape:window-height="1017"
     inkscape:window-x="-8"
     inkscape:window-y="-8"
     inkscape:window-maximized="1" />
  <metadata
     id="metadata7773">
    <rdf:RDF>
      <cc:Work
         rdf:about="">
        <dc:format>image/svg+xml</dc:format>
        <dc:type
           rdf:resource="http://purl.org/dc/dcmitype/StillImage" />
        <dc:title></dc:title>
      </cc:Work>
    </rdf:RDF>
  </metadata>
  <g
     inkscape:label="Layer 1"
     inkscape:groupmode="layer"
     id="layer1">
    <g
       id="g6496"
       transform="matrix(0.35277777,0,0,-0.35277777,98.435107,156.48089)"
       inkscape:export-filename="C:\Users\herbert\Desktop\canvas.png"
       inkscape:export-xdpi="96"
       inkscape:export-ydpi="96">
      <path
         d="M 0,0 -0.348,-132.967 H 9.05 V 1.74 Z"
         style="fill:#efc3a2;fill-opacity:1;fill-rule:nonzero;stroke:none"
         id="path6498"
         inkscape:connector-curvature="0" />
    </g>
    <g
       id="g6500"
       transform="matrix(0.35277777,0,0,-0.35277777,99.171877,178.70681)"
       inkscape:export-filename="C:\Users\herbert\Desktop\canvas.png"
       inkscape:export-xdpi="96"
       inkscape:export-ydpi="96">
      <path
         d="m 0,0 -0.348,8.702 c 0,0 -28.22,-9.805 -38.86,-13.554 l 12.058,67.158 -10.443,-0.348 -27.15,-152.807 h 10.094 l 13.473,75.037 z"
         style="fill:#efc3a2;fill-opacity:1;fill-rule:nonzero;stroke:none"
         id="path6502"
         inkscape:connector-curvature="0" />
    </g>
    <g
       id="g6504"
       transform="matrix(0.35277777,0,0,-0.35277777,100.15423,178.70681)"
       inkscape:export-filename="C:\Users\herbert\Desktop\canvas.png"
       inkscape:export-xdpi="96"
       inkscape:export-ydpi="96">
      <path
         d="m 0,0 0.348,8.702 c 0,0 28.22,-9.805 38.86,-13.554 L 27.15,62.306 37.593,61.958 64.743,-90.849 H 54.649 l -13.473,75.037 z"
         style="fill:#efc3a2;fill-opacity:1;fill-rule:nonzero;stroke:none"
         id="path6506"
         inkscape:connector-curvature="0" />
    </g>
    <g
       id="g6508"
       transform="matrix(0.35277777,0,0,-0.35277777,89.048427,159.63296)"
       inkscape:export-filename="C:\Users\herbert\Desktop\canvas.png"
       inkscape:export-xdpi="96"
       inkscape:export-ydpi="96">
      <path
         d="M 0,0 -10.167,0.5 -8.25,11.417 2.083,11.333 Z"
         style="fill:#d8a684;fill-opacity:1;fill-rule:nonzero;stroke:none"
         id="path6510"
         inkscape:connector-curvature="0" />
    </g>
    <g
       id="g6512"
       transform="matrix(0.35277777,0,0,-0.35277777,110.30329,159.80935)"
       inkscape:export-filename="C:\Users\herbert\Desktop\canvas.png"
       inkscape:export-xdpi="96"
       inkscape:export-ydpi="96">
      <path
         d="M 0,0 10.167,0.5 8.25,11.417 -2.083,11.333 Z"
         style="fill:#d8a684;fill-opacity:1;fill-rule:nonzero;stroke:none"
         id="path6514"
         inkscape:connector-curvature="0" />
    </g>
    <path
       d="m 101.66027,159.80946 h -3.175003 v -4.58611 h 3.175003 z"
       style="fill:#d8a684;fill-opacity:1;fill-rule:nonzero;stroke:none;stroke-width:0.35277775"
       id="path6516"
       inkscape:connector-curvature="0"
       inkscape:export-filename="C:\Users\herbert\Desktop\canvas.png"
       inkscape:export-xdpi="96"
       inkscape:export-ydpi="96" />
    <g
       id="g6518"
       transform="matrix(0.35277777,0,0,-0.35277777,96.408967,86.30352)"
       inkscape:export-filename="C:\Users\herbert\Desktop\canvas.png"
       inkscape:export-xdpi="96"
       inkscape:export-ydpi="96">
      <path
         d="m 0,0 5.743,36.026 c 0,0 1.559,5.111 4.726,5.111 4.003,0 4.713,-1.732 5.583,-6.083 L 22.799,0.87 Z"
         style="fill:#efc3a2;fill-opacity:1;fill-rule:nonzero;stroke:none"
         id="path6520"
         inkscape:connector-curvature="0" />
    </g>
    <path
       d="M 127.53758,153.9022 H 70.560797 v -3.26496 h 56.976783 z"
       style="fill:#e0dad1;fill-opacity:1;fill-rule:nonzero;stroke:none;stroke-width:0.35277775"
       id="path6524"
       inkscape:connector-curvature="0"
       inkscape:export-filename="C:\Users\herbert\Desktop\canvas.png"
       inkscape:export-xdpi="96"
       inkscape:export-ydpi="96" />
    <g
       id="g6526"
       transform="matrix(0.35277777,0,0,-0.35277777,128.27429,156.8493)"
       inkscape:export-filename="C:\Users\herbert\Desktop\canvas.png"
       inkscape:export-xdpi="96"
       inkscape:export-ydpi="96">
      <path
         d="m 0,0 h -161.509 c -3.446,0 -6.266,2.82 -6.266,6.266 0,3.446 2.82,6.265 6.266,6.265 L 0,12.531 c 3.446,0 6.265,-2.819 6.265,-6.265 C 6.265,2.82 3.446,0 0,0"
         style="fill:#efc3a2;fill-opacity:1;fill-rule:nonzero;stroke:none"
         id="path6528"
         inkscape:connector-curvature="0" />
    </g>
  </g>
</svg>
